<?xml version="1.0" encoding="UTF-8" standalone="no"?>
<svg
   xmlns:dc="http://purl.org/dc/elements/1.1/"
   xmlns:cc="http://creativecommons.org/ns#"
   xmlns:rdf="http://www.w3.org/1999/02/22-rdf-syntax-ns#"
   xmlns:svg="http://www.w3.org/2000/svg"
   xmlns="http://www.w3.org/2000/svg"
   xmlns:sodipodi="http://sodipodi.sourceforge.net/DTD/sodipodi-0.dtd"
   xmlns:inkscape="http://www.inkscape.org/namespaces/inkscape"
   inkscape:export-ydpi="24.375322"
   inkscape:export-xdpi="24.375322"
   inkscape:export-filename="/Users/otavioeijimitsuzaki/Desktop/Portfolio/otavio/_img/otavioeijilogo.png"
   inkscape:version="1.0beta2 (6318c8c, 2019-12-15)"
   sodipodi:docname="otavioeijilogo.svg"
   id="svg222"
   version="1.1"
   viewBox="0,0,600,600"
   height="1000"
   width="1000"
   class="thumb">
  <metadata
     id="metadata226">
    <rdf:RDF>
      <cc:Work
         rdf:about="">
        <dc:format>image/svg+xml</dc:format>
        <dc:type
           rdf:resource="http://purl.org/dc/dcmitype/StillImage" />
        <dc:title />
      </cc:Work>
    </rdf:RDF>
  </metadata>
  <sodipodi:namedview
     inkscape:current-layer="g220"
     inkscape:window-maximized="0"
     inkscape:window-y="23"
     inkscape:window-x="0"
     inkscape:cy="510.08064"
     inkscape:cx="364.91935"
     inkscape:zoom="0.496"
     showgrid="false"
     id="namedview224"
     inkscape:window-height="702"
     inkscape:window-width="1225"
     inkscape:pageshadow="2"
     inkscape:pageopacity="0"
     guidetolerance="10"
     gridtolerance="10"
     objecttolerance="10"
     borderopacity="1"
     inkscape:document-rotation="0"
     bordercolor="#666666"
     pagecolor="#ffffff" />
  <defs
     id="defs154">
    <rect
       id="rect242"
       height="65.190341"
       width="0"
       y="62.821205"
       x="86.592761" />
  </defs>
  <g
     id="g220"
     transform="matrix(0.8079,0,0,0.8079,-47.2791,168.5986)">
    <g
       id="g171"
       transform="matrix(2.7273,0,0,2.7273,394.6705,7.7274)">
      <svg
         id="svg169"
         version="1.1"
         viewBox="8.518693916146063,-3.562594178033139,78.75018135719267,108.56259417803314"
         height="108.56259417803314"
         width="78.75018135719267">
        <defs
           id="defs161">
          <linearGradient
             id="linearGradientSk4cprqv44"
             y2="0.5"
             x2="1"
             y1="0.5"
             x1="0">
            <stop
               id="stop156"
               stop-color="#40921b"
               offset="0%" />
            <stop
               id="stop158"
               stop-color="#40921b"
               offset="100%" />
          </linearGradient>
        </defs>
        <g
           id="g163" />
        <g
           id="g167">
          <path
             id="path165"
             style=""
             stroke="none"
             fill="url('#linearGradientSk4cprqv44')"
             d="M79.925,75.221l-1.3,0.551l-1.741-4.104l-1.362,0.578l1.74,4.105l-7.084,3.008c-19.45,8.254-41.993-0.852-50.249-20.305      c-8.256-19.451,0.851-41.992,20.302-50.25L47.315,5.8l1.758,4.144l1.366-0.578l-1.761-4.145l1.302-0.551      c0.853-0.363,1.252-1.35,0.889-2.208c-0.363-0.854-1.348-1.253-2.206-0.891l-9.747,4.138      C17.757,14.69,7.852,39.21,16.832,60.371c6.536,15.396,21.305,24.828,37.016,25.363v5.645l-8.026-0.002      c-1.547,0.002-2.804,1.258-2.804,2.805v0.889v2.125V100h2.804h19.417h2.806l0.003-2.805l-0.003-2.125l0.003-0.889      c-0.003-1.547-1.26-2.803-2.809-2.803h-8.022v-5.658c4.786-0.229,9.614-1.285,14.278-3.264l6.215-2.643l3.098-1.314l0.436-0.182      c0.853-0.363,1.254-1.352,0.891-2.207C81.771,75.256,80.783,74.859,79.925,75.221z" />
        </g>
      </svg>
    </g>
    <g
       id="g188"
       transform="matrix(1.6655,-0.6393,0.6452,1.6808,414.9454,72.216911)">
      <svg
         id="svg186"
         version="1.1"
         viewBox="-5 -5 110 110"
         height="110"
         width="110">
        <defs
           id="defs178">
          <linearGradient
             id="linearGradientSk4cprqv4a"
             y2="50"
             x2="100"
             y1="50"
             x1="0"
             gradientUnits="userSpaceOnUse">
            <stop
               id="stop173"
               stop-color="#1761a0"
               offset="0%" />
            <stop
               id="stop175"
               stop-color="#1761a0"
               offset="100%" />
          </linearGradient>
        </defs>
        <g
           id="g180" />
        <g
           id="g184">
          <path
             id="path182"
             style="fill:url(#linearGradientSk4cprqv4a)"
             stroke="none"
             fill="url('#linearGradientSk4cprqv4a')"
             d="M 93.262,75 C 97.547,67.639 100,59.131 100,50 100,22.388 77.612,0 50,0 22.388,0 0,22.388 0,50 c 0,27.612 22.388,50 50,50 13.807,0 26.307,-5.591 35.352,-14.648 l -8.85,-8.85 C 69.715,83.301 60.34,87.5 50,87.5 29.321,87.5 12.5,70.679 12.5,50 12.5,29.321 29.321,12.5 50,12.5 c 20.679,0 37.5,16.821 37.5,37.5 0,4.443 -0.854,8.691 -2.283,12.646 L 85.119,62.5 H 75 V 25.135 H 50 c -13.807,0 -25,11.193 -25,25 0,13.806 11.193,25 25,25 5.737,0 10.962,-2.015 15.186,-5.262 C 67.456,72.9 70.923,75 75,75 Z M 62.5,43.774 v 6.36 c 0,6.896 -5.615,12.5 -12.5,12.5 -6.885,0 -12.5,-5.604 -12.5,-12.5 0,-6.897 5.615,-12.5 12.5,-12.5 h 12.5 z"
             inkscape:connector-curvature="0" />
        </g>
      </svg>
    </g>
    <g
       style="opacity:1;fill:#40921b;fill-opacity:1"
       id="g218"
       transform="matrix(0.9417,0,0,0.82333038,110.23724,212.31608)">
      <text
         id="text238"
         y="96.211388"
         x="50.022568"
         style="font-size:99.8949px;line-height:1.25;font-family:Roboto;-inkscape-font-specification:Roboto;fill:#40921b;fill-opacity:1;stroke-width:0.788644"
         xml:space="preserve"><tspan
           style="fill:#40921b;fill-opacity:1;stroke-width:0.788644"
           y="96.211388"
           x="50.022568"
           id="tspan236"
           sodipodi:role="line">Otávio</tspan></text>
      <text
         style="font-size:31.54579999999999984px;line-height:1.25;font-family:Roboto;-inkscape-font-specification:Roboto;white-space:pre;shape-inside:url(#rect242);fill:#40921b;fill-opacity:1;"
         id="text240"
         xml:space="preserve" />
    </g>
    <text
       transform="scale(1.0760283,0.92934359)"
       id="text248"
       y="314.90332"
       x="585.94519"
       style="font-size:87.4243px;line-height:1.25;font-family:Roboto;-inkscape-font-specification:Roboto;fill:#40921b;fill-opacity:1;stroke-width:0.690192"
       xml:space="preserve"><tspan
         style="fill:#40921b;fill-opacity:1;stroke-width:0.690192"
         y="314.90332"
         x="585.94519"
         id="tspan246"
         sodipodi:role="line">Eiji</tspan></text>
  </g>
</svg>
